<mxfile host="65bd71144e">
    <diagram id="kLGkoJjLaEw89xCaNsPZ" name="Page-1">
        <mxGraphModel dx="882" dy="557" grid="1" gridSize="10" guides="1" tooltips="1" connect="1" arrows="1" fold="1" page="1" pageScale="1" pageWidth="850" pageHeight="1100" math="0" shadow="0">
            <root>
                <mxCell id="0"/>
                <mxCell id="1" parent="0"/>
                <mxCell id="2" value="&lt;root&gt;&#10;    &lt;mxCell id=&quot;6&quot; value=&quot;driveMetropolis()&quot; style=&quot;rounded=1;whiteSpace=wrap;html=1;&quot; vertex=&quot;1&quot; parent=&quot;1&quot;&gt;&#10;      &lt;mxGeometry x=&quot;140&quot; y=&quot;310&quot; width=&quot;120&quot; height=&quot;30&quot; as_=&quot;geometry&quot;/&gt;&#10;    &lt;/mxCell&gt;&#10;    &lt;mxCell id=&quot;7&quot; value=&quot;getBasicSites()&quot; style=&quot;rounded=1;whiteSpace=wrap;html=1;&quot; vertex=&quot;1&quot; parent=&quot;1&quot;&gt;&#10;      &lt;mxGeometry x=&quot;140&quot; y=&quot;310&quot; width=&quot;120&quot; height=&quot;30&quot; as_=&quot;geometry&quot;/&gt;&#10;    &lt;/mxCell&gt;&#10;    &lt;mxCell id=&quot;8&quot; value=&quot;getFilaments()&quot; style=&quot;rounded=1;whiteSpace=wrap;html=1;&quot; vertex=&quot;1&quot; parent=&quot;1&quot;&gt;&#10;      &lt;mxGeometry x=&quot;140&quot; y=&quot;310&quot; width=&quot;120&quot; height=&quot;30&quot; as_=&quot;geometry&quot;/&gt;&#10;    &lt;/mxCell&gt;&#10;    &lt;mxCell id=&quot;9&quot; value=&quot;getParameters()&quot; style=&quot;rounded=1;whiteSpace=wrap;html=1;&quot; vertex=&quot;1&quot; parent=&quot;1&quot;&gt;&#10;      &lt;mxGeometry x=&quot;140&quot; y=&quot;310&quot; width=&quot;120&quot; height=&quot;30&quot; as_=&quot;geometry&quot;/&gt;&#10;    &lt;/mxCell&gt;&#10;    &lt;mxCell id=&quot;10&quot; value=&quot;getSites()&quot; style=&quot;rounded=1;whiteSpace=wrap;html=1;&quot; vertex=&quot;1&quot; parent=&quot;1&quot;&gt;&#10;      &lt;mxGeometry x=&quot;140&quot; y=&quot;310&quot; width=&quot;120&quot; height=&quot;30&quot; as_=&quot;geometry&quot;/&gt;&#10;    &lt;/mxCell&gt;&#10;    &lt;mxCell id=&quot;11&quot; value=&quot;initializePhosphorylatedSites()&quot; style=&quot;rounded=1;whiteSpace=wrap;html=1;&quot; vertex=&quot;1&quot; parent=&quot;1&quot;&gt;&#10;      &lt;mxGeometry x=&quot;140&quot; y=&quot;310&quot; width=&quot;120&quot; height=&quot;30&quot; as_=&quot;geometry&quot;/&gt;&#10;    &lt;/mxCell&gt;&#10;    &lt;mxCell id=&quot;12&quot; value=&quot;initializeStiffSites()&quot; style=&quot;rounded=1;whiteSpace=wrap;html=1;&quot; vertex=&quot;1&quot; parent=&quot;1&quot;&gt;&#10;      &lt;mxGeometry x=&quot;140&quot; y=&quot;310&quot; width=&quot;120&quot; height=&quot;30&quot; as_=&quot;geometry&quot;/&gt;&#10;    &lt;/mxCell&gt;&#10;    &lt;mxCell id=&quot;13&quot; value=&quot;metropolisJoint.c&quot; style=&quot;rounded=1;whiteSpace=wrap;html=1;&quot; vertex=&quot;1&quot; parent=&quot;1&quot;&gt;&#10;      &lt;mxGeometry x=&quot;140&quot; y=&quot;310&quot; width=&quot;120&quot; height=&quot;30&quot; as_=&quot;geometry&quot;/&gt;&#10;    &lt;/mxCell&gt;&#10;    &lt;mxCell id=&quot;14&quot; value=&quot;metropolisJoint()&quot; style=&quot;rounded=1;whiteSpace=wrap;html=1;&quot; vertex=&quot;1&quot; parent=&quot;1&quot;&gt;&#10;      &lt;mxGeometry x=&quot;140&quot; y=&quot;310&quot; width=&quot;120&quot; height=&quot;30&quot; as_=&quot;geometry&quot;/&gt;&#10;    &lt;/mxCell&gt;&#10;    &lt;mxCell id=&quot;15&quot; value=&quot;stationarity()&quot; style=&quot;rounded=1;whiteSpace=wrap;html=1;&quot; vertex=&quot;1&quot; parent=&quot;1&quot;&gt;&#10;      &lt;mxGeometry x=&quot;140&quot; y=&quot;310&quot; width=&quot;120&quot; height=&quot;30&quot; as_=&quot;geometry&quot;/&gt;&#10;    &lt;/mxCell&gt;&#10;    &lt;mxCell id=&quot;16&quot; value=&quot;appendBins()&quot; style=&quot;rounded=1;whiteSpace=wrap;html=1;&quot; vertex=&quot;1&quot; parent=&quot;1&quot;&gt;&#10;      &lt;mxGeometry x=&quot;140&quot; y=&quot;310&quot; width=&quot;120&quot; height=&quot;30&quot; as_=&quot;geometry&quot;/&gt;&#10;    &lt;/mxCell&gt;&#10;    &lt;mxCell id=&quot;17&quot; value=&quot;rotate()&quot; style=&quot;rounded=1;whiteSpace=wrap;html=1;&quot; vertex=&quot;1&quot; parent=&quot;1&quot;&gt;&#10;      &lt;mxGeometry x=&quot;140&quot; y=&quot;310&quot; width=&quot;120&quot; height=&quot;30&quot; as_=&quot;geometry&quot;/&gt;&#10;    &lt;/mxCell&gt;&#10;    &lt;mxCell id=&quot;18&quot; value=&quot;outputControl.c&quot; style=&quot;rounded=1;whiteSpace=wrap;html=1;&quot; vertex=&quot;1&quot; parent=&quot;1&quot;&gt;&#10;      &lt;mxGeometry x=&quot;140&quot; y=&quot;310&quot; width=&quot;120&quot; height=&quot;30&quot; as_=&quot;geometry&quot;/&gt;&#10;    &lt;/mxCell&gt;&#10;    &lt;mxCell id=&quot;19&quot; value=&quot;initializeSummary()&quot; style=&quot;rounded=1;whiteSpace=wrap;html=1;&quot; vertex=&quot;1&quot; parent=&quot;1&quot;&gt;&#10;      &lt;mxGeometry x=&quot;140&quot; y=&quot;310&quot; width=&quot;120&quot; height=&quot;30&quot; as_=&quot;geometry&quot;/&gt;&#10;    &lt;/mxCell&gt;&#10;    &lt;mxCell id=&quot;20&quot; value=&quot;finalizeSummary()&quot; style=&quot;rounded=1;whiteSpace=wrap;html=1;&quot; vertex=&quot;1&quot; parent=&quot;1&quot;&gt;&#10;      &lt;mxGeometry x=&quot;140&quot; y=&quot;310&quot; width=&quot;120&quot; height=&quot;30&quot; as_=&quot;geometry&quot;/&gt;&#10;    &lt;/mxCell&gt;&#10;    &lt;mxCell id=&quot;21&quot; value=&quot;dataRecording()&quot; style=&quot;rounded=1;whiteSpace=wrap;html=1;&quot; vertex=&quot;1&quot; parent=&quot;1&quot;&gt;&#10;      &lt;mxGeometry x=&quot;140&quot; y=&quot;310&quot; width=&quot;120&quot; height=&quot;30&quot; as_=&quot;geometry&quot;/&gt;&#10;    &lt;/mxCell&gt;&#10;    &lt;mxCell id=&quot;22&quot; value=&quot;twister.c&quot; style=&quot;rounded=1;whiteSpace=wrap;html=1;&quot; vertex=&quot;1&quot; parent=&quot;1&quot;&gt;&#10;      &lt;mxGeometry x=&quot;140&quot; y=&quot;310&quot; width=&quot;120&quot; height=&quot;30&quot; as_=&quot;geometry&quot;/&gt;&#10;    &lt;/mxCell&gt;&#10;    &lt;mxCell id=&quot;23&quot; value=&quot;wrapper.m&quot; style=&quot;rounded=1;whiteSpace=wrap;html=1;&quot; vertex=&quot;1&quot; parent=&quot;1&quot;&gt;&#10;      &lt;mxGeometry x=&quot;140&quot; y=&quot;310&quot; width=&quot;120&quot; height=&quot;30&quot; as_=&quot;geometry&quot;/&gt;&#10;    &lt;/mxCell&gt;&#10;    &lt;mxCell id=&quot;24&quot; value=&quot;ExampleHPC.pub&quot; style=&quot;rounded=1;whiteSpace=wrap;html=1;&quot; vertex=&quot;1&quot; parent=&quot;1&quot;&gt;&#10;      &lt;mxGeometry x=&quot;140&quot; y=&quot;310&quot; width=&quot;120&quot; height=&quot;30&quot; as_=&quot;geometry&quot;/&gt;&#10;    &lt;/mxCell&gt;&#10;    &lt;mxCell id=&quot;25&quot; value=&quot;catFiles.sh&quot; style=&quot;rounded=1;whiteSpace=wrap;html=1;&quot; vertex=&quot;1&quot; parent=&quot;1&quot;&gt;&#10;      &lt;mxGeometry x=&quot;140&quot; y=&quot;310&quot; width=&quot;120&quot; height=&quot;30&quot; as_=&quot;geometry&quot;/&gt;&#10;    &lt;/mxCell&gt;&#10;    &lt;mxCell id=&quot;26&quot; value=&quot;copyCatFiles.sh&quot; style=&quot;rounded=1;whiteSpace=wrap;html=1;&quot; vertex=&quot;1&quot; parent=&quot;1&quot;&gt;&#10;      &lt;mxGeometry x=&quot;140&quot; y=&quot;310&quot; width=&quot;120&quot; height=&quot;30&quot; as_=&quot;geometry&quot;/&gt;&#10;    &lt;/mxCell&gt;&#10;    &lt;mxCell id=&quot;27&quot; value=&quot;makePubs.pl&quot; style=&quot;rounded=1;whiteSpace=wrap;html=1;&quot; vertex=&quot;1&quot; parent=&quot;1&quot;&gt;&#10;      &lt;mxGeometry x=&quot;140&quot; y=&quot;310&quot; width=&quot;120&quot; height=&quot;30&quot; as_=&quot;geometry&quot;/&gt;&#10;    &lt;/mxCell&gt;&#10;    &lt;mxCell id=&quot;28&quot; value=&quot;makePubsReadTxtFile.pl&quot; style=&quot;rounded=1;whiteSpace=wrap;html=1;&quot; vertex=&quot;1&quot; parent=&quot;1&quot;&gt;&#10;      &lt;mxGeometry x=&quot;140&quot; y=&quot;310&quot; width=&quot;120&quot; height=&quot;30&quot; as_=&quot;geometry&quot;/&gt;&#10;    &lt;/mxCell&gt;&#10;    &lt;mxCell id=&quot;29&quot; value=&quot;makePubsRealFormins.pl&quot; style=&quot;rounded=1;whiteSpace=wrap;html=1;&quot; vertex=&quot;1&quot; parent=&quot;1&quot;&gt;&#10;      &lt;mxGeometry x=&quot;140&quot; y=&quot;310&quot; width=&quot;120&quot; height=&quot;30&quot; as_=&quot;geometry&quot;/&gt;&#10;    &lt;/mxCell&gt;&#10;    &lt;mxCell id=&quot;30&quot; value=&quot;submit.pl&quot; style=&quot;rounded=1;whiteSpace=wrap;html=1;&quot; vertex=&quot;1&quot; parent=&quot;1&quot;&gt;&#10;      &lt;mxGeometry x=&quot;140&quot; y=&quot;310&quot; width=&quot;120&quot; height=&quot;30&quot; as_=&quot;geometry&quot;/&gt;&#10;    &lt;/mxCell&gt;&#10;    &lt;mxCell id=&quot;31&quot; value=&quot;submitReadTxtFile.pl&quot; style=&quot;rounded=1;whiteSpace=wrap;html=1;&quot; vertex=&quot;1&quot; parent=&quot;1&quot;&gt;&#10;      &lt;mxGeometry x=&quot;140&quot; y=&quot;310&quot; width=&quot;120&quot; height=&quot;30&quot; as_=&quot;geometry&quot;/&gt;&#10;    &lt;/mxCell&gt;&#10;    &lt;mxCell id=&quot;32&quot; value=&quot;submitRealFormins.pl&quot; style=&quot;rounded=1;whiteSpace=wrap;html=1;&quot; vertex=&quot;1&quot; parent=&quot;1&quot;&gt;&#10;      &lt;mxGeometry x=&quot;140&quot; y=&quot;310&quot; width=&quot;120&quot; height=&quot;30&quot; as_=&quot;geometry&quot;/&gt;&#10;    &lt;/mxCell&gt;&#10;    &lt;mxCell id=&quot;33&quot; value=&quot;waffle&quot; style=&quot;rounded=1;whiteSpace=wrap;html=1;&quot; vertex=&quot;1&quot; parent=&quot;1&quot;&gt;&#10;      &lt;mxGeometry x=&quot;140&quot; y=&quot;310&quot; width=&quot;120&quot; height=&quot;30&quot; as_=&quot;geometry&quot;/&gt;&#10;    &lt;/mxCell&gt;&#10;  &lt;/root&gt;" style="text;whiteSpace=wrap;html=1;" vertex="1" parent="1">
                    <mxGeometry width="30" height="1210" as="geometry"/>
                </mxCell>
            </root>
        </mxGraphModel>
    </diagram>
</mxfile>